<?xml version="1.0" standalone="no"?>
<!DOCTYPE svg PUBLIC "-//W3C//DTD SVG 20010904//EN"
 "http://www.w3.org/TR/2001/REC-SVG-20010904/DTD/svg10.dtd">
<svg version="1.0" xmlns="http://www.w3.org/2000/svg"
 width="700.000000pt" height="700.000000pt" viewBox="0 0 700.000000 700.000000"
 preserveAspectRatio="xMidYMid meet">
<metadata>
Created by potrace 1.14, written by Peter Selinger 2001-2017
</metadata>
<g transform="translate(0.000000,700.000000) scale(0.100000,-0.100000)"
fill="#000000" stroke="none">
<path d="M717 6984 c-178 -32 -322 -109 -457 -244 -102 -102 -152 -177 -200
-302 -64 -165 -60 15 -60 -2938 0 -2953 -4 -2773 60 -2938 48 -125 98 -200
200 -302 102 -102 177 -152 302 -200 165 -64 -15 -60 2938 -60 2953 0 2773 -4
2938 60 125 48 200 98 302 200 102 102 152 177 200 302 64 165 60 -15 60 2938
0 2953 4 2773 -60 2938 -48 125 -98 200 -200 302 -102 102 -177 152 -302 200
-165 64 16 60 -2947 59 -2268 -1 -2708 -3 -2774 -15z m2709 -1540 c70 -14 190
-66 243 -103 23 -17 39 -18 131 -14 128 6 212 -11 313 -64 310 -163 412 -609
200 -871 l-36 -43 272 -892 c364 -1192 357 -1171 387 -1207 36 -42 74 -60 128
-60 l44 0 31 -97 c45 -148 46 -150 24 -157 -34 -10 -874 -266 -1368 -418 -828
-253 -1104 -337 -1121 -340 -12 -2 -24 23 -54 120 l-38 123 27 13 c54 29 75
62 79 129 4 58 -9 105 -178 657 -100 327 -184 599 -187 603 -3 4 -24 -3 -47
-17 -266 -156 -551 -78 -679 184 -94 192 -89 337 17 548 75 148 80 216 32 417
-14 61 -29 153 -32 205 -18 281 127 498 407 610 45 18 59 30 77 64 87 161 298
293 500 312 65 6 68 8 102 52 45 59 133 132 212 176 155 86 326 109 514 70z
m1585 -1024 c197 -37 352 -210 421 -465 29 -110 32 -379 5 -505 -41 -192 -121
-379 -224 -522 -75 -104 -242 -268 -253 -248 -4 8 -29 85 -56 171 l-47 156 51
64 c201 257 272 643 158 867 -49 96 -141 151 -227 137 -22 -4 -90 -22 -151
-41 -61 -19 -116 -34 -123 -34 -14 0 -109 300 -98 310 10 9 305 98 363 109 63
12 119 13 181 1z"/>
<path d="M3148 5189 c-147 -34 -284 -167 -332 -322 -4 -14 -10 -16 -24 -8 -9
5 -46 14 -80 21 -114 20 -243 -21 -327 -105 -44 -44 -105 -152 -105 -186 0
-12 -19 -21 -70 -34 -146 -36 -262 -112 -303 -197 -25 -54 -39 -143 -32 -202
4 -28 20 -109 37 -181 49 -205 41 -320 -31 -464 -80 -159 -101 -265 -71 -358
44 -136 214 -197 356 -128 80 39 114 95 114 185 0 61 -5 77 -53 176 -87 177
-117 289 -117 439 0 146 49 271 128 328 62 45 129 47 256 8 225 -70 373 -20
496 168 l15 23 35 -20 c94 -54 258 -69 365 -32 85 29 135 62 196 128 l54 58
55 -25 c43 -20 71 -25 130 -25 92 0 148 23 219 89 67 63 94 128 95 226 1 68
-3 83 -34 145 -80 157 -267 218 -424 139 l-54 -27 -42 45 c-88 96 -207 148
-337 146 -43 -1 -95 -5 -115 -10z"/>
<path d="M3683 4147 c-134 -100 -344 -152 -516 -128 l-78 11 -53 -40 c-61 -46
-159 -92 -236 -111 -112 -26 -294 -10 -402 35 -14 6 -17 -1 -23 -47 -13 -102
22 -248 88 -365 16 -29 42 -92 57 -140 16 -47 32 -88 37 -89 8 -3 1543 464
1551 471 4 4 -18 80 -88 306 l-39 125 -131 0 c-127 0 -131 -1 -167 -28z"/>
<path d="M3008 3112 c-37 -35 -42 -45 -45 -93 -7 -98 58 -163 156 -156 48 3
58 8 93 45 34 37 38 47 38 92 0 97 -52 150 -148 150 -47 0 -57 -4 -94 -38z"/>
<path d="M3825 3040 c-32 -13 -75 -63 -85 -100 -29 -101 77 -209 177 -181 130
37 155 201 41 271 -34 21 -97 25 -133 10z"/>
<path d="M3526 2390 c-72 -23 -118 -109 -97 -181 12 -41 67 -95 107 -105 123
-31 231 113 162 216 -44 65 -107 90 -172 70z"/>
</g>
</svg>
