<svg xmlns="http://www.w3.org/2000/svg" width="30" height="24" viewBox="0 0 30 24"><defs><style>.a{fill:#fff;}</style></defs><path class="a" d="M27.416,13.771l-.7-1.756L25.468,8.9a6.966,6.966,0,0,0-6.5-4.4H11.031a6.967,6.967,0,0,0-6.5,4.4L3.286,12.014l-.7,1.756A3.991,3.991,0,0,0,0,17.5v3a3.967,3.967,0,0,0,1,2.621V26.5a2,2,0,0,0,2,2H5a2,2,0,0,0,2-2v-2H23v2a2,2,0,0,0,2,2h2a2,2,0,0,0,2-2V23.121A3.965,3.965,0,0,0,30,20.5v-3A3.991,3.991,0,0,0,27.416,13.771ZM8.246,10.386A3,3,0,0,1,11.031,8.5h7.937a3,3,0,0,1,2.786,1.886L23,13.5H7l1.246-3.114ZM5,20.488a1.887,1.887,0,0,1-2-1.994A1.887,1.887,0,0,1,5,16.5a3.848,3.848,0,0,1,3,2.991C8,20.687,6.2,20.488,5,20.488Zm20,0c-1.2,0-3,.2-3-1A3.848,3.848,0,0,1,25,16.5a1.887,1.887,0,0,1,2,1.994,1.887,1.887,0,0,1-2,1.994Z" transform="translate(0 -4.5)"/></svg>