<svg xmlns="http://www.w3.org/2000/svg" width="32" height="26" viewBox="0 0 32 26"><defs><style>.a{fill:#fff;}</style></defs><path class="a" d="M15.575,9,5.333,17.812v9.513a.909.909,0,0,0,.889.929l6.225-.017a.91.91,0,0,0,.884-.929V21.753a.909.909,0,0,1,.889-.929h3.555a.909.909,0,0,1,.889.929V27.3a.95.95,0,0,0,.259.659.87.87,0,0,0,.629.273l6.223.018a.909.909,0,0,0,.889-.929V17.806L16.425,9A.655.655,0,0,0,15.575,9Zm16.178,5.991-4.644-4V2.95a.682.682,0,0,0-.667-.7H23.331a.682.682,0,0,0-.667.7V7.164L17.691,2.889a2.579,2.579,0,0,0-3.389,0L.241,14.989a.718.718,0,0,0-.089.981l1.417,1.8a.659.659,0,0,0,.451.251.647.647,0,0,0,.488-.156L15.575,6.619a.655.655,0,0,1,.85,0L29.492,17.864a.647.647,0,0,0,.939-.093l1.417-1.8A.718.718,0,0,0,32,15.46a.706.706,0,0,0-.243-.471Z" transform="translate(0.001 -2.254)"/></svg>