<svg xmlns="http://www.w3.org/2000/svg" width="28" height="28" viewBox="0 0 28 28"><defs><style>.a{fill:#fff;}</style></defs><path class="a" d="M30.189,18.5A3.6,3.6,0,0,1,32.5,15.136a14.276,14.276,0,0,0-1.728-4.162,3.652,3.652,0,0,1-1.466.313,3.594,3.594,0,0,1-3.289-5.059A14.241,14.241,0,0,0,21.861,4.5a3.6,3.6,0,0,1-6.723,0,14.284,14.284,0,0,0-4.164,1.728,3.594,3.594,0,0,1-3.289,5.059,3.533,3.533,0,0,1-1.466-.313A14.592,14.592,0,0,0,4.5,15.143a3.6,3.6,0,0,1,.007,6.721,14.276,14.276,0,0,0,1.728,4.162,3.6,3.6,0,0,1,4.747,4.746A14.367,14.367,0,0,0,15.146,32.5a3.594,3.594,0,0,1,6.708,0,14.284,14.284,0,0,0,4.164-1.728,3.6,3.6,0,0,1,4.747-4.746,14.359,14.359,0,0,0,1.728-4.162A3.619,3.619,0,0,1,30.189,18.5ZM18.566,24.321A5.832,5.832,0,1,1,24.4,18.489,5.831,5.831,0,0,1,18.566,24.321Z" transform="translate(-4.5 -4.5)"/></svg>