<svg xmlns="http://www.w3.org/2000/svg" width="27.882" height="23.899" viewBox="0 0 27.882 23.899"><g transform="translate(-234.118 -241)"><path d="M21.6,11.456A6.5,6.5,0,0,1,15.18,22.573Zm-11.9,8.409-.363.634a5,5,0,0,1-8.662-5l6.873-12a5,5,0,0,1,8.886,4.564,8.461,8.461,0,0,0-2.756.843l.8-1.407a3,3,0,1,0-5.2-3L5.9,10.436l3.978,2.3A8.516,8.516,0,0,0,9.7,19.865Zm3.75,1.714a6.5,6.5,0,0,1,6.427-11.132Z" transform="translate(238 240)" fill="#e9c1ff" fill-rule="evenodd"/><path d="M3.711,3.85l3.832,6.935a5,5,0,0,0,9.272-3.277,5.85,5.85,0,0,0-.93-2.325A8.749,8.749,0,0,1,13.3,4.391l1.17,2.394a3,3,0,1,1-5.2,3L5.9,3.85C3.02-1.144,2.331,1.46,3.711,3.85Z" transform="translate(243.948 243.592) rotate(59)" fill="#fff" fill-rule="evenodd"/><path d="M.686,9.436,4.518,2.5A5,5,0,0,1,13.4,7.065a8.461,8.461,0,0,0-2.756.843l.8-1.407a3,3,0,1,0-5.2-3L2.878,9.436C-.006,14.43-.694,11.826.686,9.436Z" transform="translate(241.025 241)" fill="#fff" fill-rule="evenodd"/></g></svg>