<svg xmlns="http://www.w3.org/2000/svg" width="24" height="24" viewBox="0 0 24 24"><path d="M18,21.224V8.452a3.394,3.394,0,0,0,1.707-3.1,3.525,3.525,0,0,0-3.319-3.515A4.4,4.4,0,0,0,10.067.964,3.892,3.892,0,0,0,6.016,2.006,3.7,3.7,0,0,0,2.65,3.756a6.138,6.138,0,0,0-.623,2.929C1.963,8.532,0,8.552,0,10.957c0,2.019,1.542,3.559,4,2.8v7.466c0,.664-.336,1.2-1,1.2V24H19V22.427C18.335,22.427,18,21.888,18,21.224ZM1.588,10.74c.23-1.539,1.933-1.662,2.015-4,.063-1.792.22-3.414,3.193-3.126a2.317,2.317,0,0,1,3.6-.679,2.821,2.821,0,0,1,5.1.6,1.92,1.92,0,0,1,.689-.126,1.944,1.944,0,1,1-1.539,3.132,2.818,2.818,0,0,1-4.025-.366,2.312,2.312,0,0,1-3.329.2,1.706,1.706,0,0,0-1.08-.456c-1.389,0-2.289,2.391-1.779,4.53C5.1,13.249,1.271,12.854,1.588,10.74ZM6.009,12a5.139,5.139,0,0,0-.041-1.917,3.874,3.874,0,0,1,.009-1.8,2.19,2.19,0,0,1,.3-.709l.011.008A4.025,4.025,0,0,0,8.88,8.56a3.838,3.838,0,0,0,1.681-.388,4.4,4.4,0,0,0,3.954.277A3.106,3.106,0,0,0,16,8.868V12ZM19,19.42V17.26C22.154,15.43,22.9,11,20.485,11H19V9.005h1.845C22.99,9.005,24,10.539,24,12.457A7.851,7.851,0,0,1,19,19.42Z" transform="translate(0 0)" fill="#fff"/><rect width="9.989" height="9.965" transform="translate(6.011 11.998)" fill="#efd13c"/><circle cx="0.879" cy="0.879" r="0.879" transform="translate(9.44 18.11)" fill="#d8b627"/><circle cx="0.879" cy="0.879" r="0.879" transform="translate(7.852 13.674)" fill="#d8b627"/><circle cx="0.879" cy="0.879" r="0.879" transform="translate(12.319 15.222)" fill="#d8b627"/></svg>